
<svg  width="300.000000pt" height="111.000000pt" viewBox="0 0 300.000000 111.000000"
 preserveAspectRatio="xMidYMid meet">
<metadata>
Created by potrace 1.10, written by Peter Selinger 2001-2011
</metadata>
<g transform="translate(0.000000,111.000000) scale(0.100000,-0.100000)"
fill="#000000" stroke="none">
<path d="M680 971 c-108 -33 -172 -119 -172 -232 0 -130 100 -229 232 -229 72
0 123 19 168 63 32 30 62 76 62 94 0 5 -52 22 -115 38 -85 21 -115 33 -115 45
0 8 13 60 29 115 16 55 26 103 24 108 -5 9 -80 8 -113 -2z m90 -18 c0 -5 -13
-55 -29 -113 -21 -78 -41 -125 -76 -180 -26 -41 -49 -77 -51 -79 -2 -2 -14 4
-25 15 -32 28 -59 93 -59 145 0 56 40 141 82 170 47 34 158 63 158 42z m167
-299 c6 -18 -57 -82 -100 -103 -25 -12 -63 -21 -90 -21 -59 0 -122 24 -111 42
4 7 27 43 51 79 l43 67 102 -28 c56 -15 103 -31 105 -36z"/>
<path d="M806 963 c-23 -80 -57 -215 -54 -218 2 -2 54 -17 116 -33 130 -35
128 -36 119 55 -8 72 -48 138 -111 181 -56 37 -63 38 -70 15z m89 -66 c37 -38
55 -66 63 -99 15 -60 15 -88 0 -88 -31 2 -183 49 -182 56 8 49 49 184 57 184
6 0 34 -24 62 -53z"/>
<path d="M1240 410 l0 -160 90 0 c83 0 90 1 90 20 0 18 -7 20 -74 20 l-73 0 5
140 c5 138 4 140 -17 140 -21 0 -21 -3 -21 -160z"/>
<path d="M1960 550 c0 -18 8 -20 99 -22 l99 -3 -98 -115 c-61 -71 -100 -124
-100 -137 0 -23 2 -23 125 -23 118 0 125 1 125 20 0 18 -8 20 -99 22 l-99 3
98 115 c61 71 100 124 100 138 0 22 -2 22 -125 22 -118 0 -125 -1 -125 -20z"/>
<path d="M890 438 c-151 -104 -159 -108 -222 -108 -82 0 -72 17 11 22 51 3 75
9 91 23 32 29 42 60 28 90 -10 23 -15 24 -47 18 -42 -9 -85 -9 -203 2 -109 10
-127 3 -207 -80 -37 -39 -67 -62 -75 -59 -17 7 -95 -46 -96 -65 0 -18 169
-241 183 -241 11 0 80 50 85 62 2 4 2 10 0 13 -2 2 6 11 18 19 14 10 70 19
163 26 82 6 154 16 169 24 39 21 272 260 272 279 0 19 -29 37 -59 37 -11 0
-61 -28 -111 -62z m-220 18 c36 -1 74 1 85 4 16 4 21 -1 23 -21 5 -40 -25 -58
-109 -67 -70 -7 -74 -8 -74 -32 0 -23 5 -26 55 -31 70 -8 93 2 224 90 99 68
156 89 156 58 0 -14 -225 -240 -255 -255 -11 -6 -79 -13 -150 -17 -72 -4 -145
-14 -164 -21 -19 -8 -38 -11 -42 -7 -4 5 -34 43 -66 85 l-59 77 55 60 c79 84
100 94 186 85 39 -4 99 -8 135 -8z m-326 -241 l76 -100 -32 -27 c-18 -14 -33
-26 -34 -25 -1 1 -38 50 -82 109 l-81 106 32 25 c18 14 35 22 39 19 3 -4 41
-52 82 -107z"/>
<path d="M1502 464 c-28 -19 -52 -65 -52 -99 0 -34 24 -80 52 -99 52 -36 158
-3 158 50 0 9 -39 3 -45 -7 -4 -5 -18 -14 -32 -20 -36 -14 -93 21 -93 57 0 2
41 4 90 4 90 0 90 0 90 26 0 32 -16 64 -44 86 -26 22 -94 23 -124 2z m113 -40
c14 -15 25 -31 25 -35 0 -5 -34 -9 -75 -9 -82 0 -89 7 -50 45 32 33 70 32 100
-1z"/>
<path d="M1747 460 c-85 -67 -38 -210 68 -210 40 0 95 32 95 56 0 16 -36 19
-45 3 -13 -20 -55 -30 -78 -17 -23 12 -46 37 -47 51 0 4 43 7 96 7 95 0 96 0
90 23 -3 12 -6 27 -6 34 0 6 -14 25 -31 42 -38 38 -101 43 -142 11z m118 -35
c39 -38 32 -45 -50 -45 -46 0 -75 4 -75 10 0 21 49 60 75 60 14 0 37 -11 50
-25z"/>
<path d="M2287 460 c-82 -65 -39 -210 63 -210 106 0 156 126 80 202 -36 35
-103 39 -143 8z m114 -39 c35 -36 37 -70 6 -107 -31 -36 -73 -36 -104 0 -25
30 -29 53 -12 90 11 24 41 44 67 45 8 1 27 -12 43 -28z"/>
<path d="M2510 365 c0 -104 2 -115 18 -115 16 0 18 10 17 81 0 73 2 82 24 100
31 25 47 24 76 -6 22 -21 25 -33 25 -100 0 -69 2 -75 20 -75 20 0 21 4 16 93
-5 83 -8 94 -31 115 -31 26 -81 29 -113 6 -20 -14 -22 -14 -22 0 0 9 -7 16
-15 16 -12 0 -15 -19 -15 -115z"/>
<path d="M2774 446 c-29 -29 -34 -41 -34 -81 0 -40 5 -52 34 -81 44 -44 99
-47 145 -8 17 14 31 30 31 35 0 15 -32 10 -52 -8 -24 -22 -73 -21 -98 2 -40
36 -27 45 71 45 l92 0 -6 38 c-9 53 -55 92 -108 92 -33 0 -47 -6 -75 -34z
m120 -17 c47 -37 35 -49 -50 -49 -80 0 -82 2 -41 48 25 28 56 28 91 1z"/>
</g>
</svg>
