
<svg width="687.000000pt" height="255.000000pt" viewBox="0 0 687.000000 255.000000"
 preserveAspectRatio="xMidYMid meet">

<g transform="translate(0.000000,255.000000) scale(0.100000,-0.100000)"
fill="#000000" stroke="none">
<path d="M1595 2239 c-146 -29 -298 -143 -368 -277 -87 -165 -89 -331 -7 -498
164 -334 601 -404 866 -140 71 71 142 190 131 219 -3 7 -114 42 -266 82 -261
70 -261 70 -256 95 3 14 34 131 69 260 54 197 62 237 50 249 -16 18 -149 24
-219 10z m168 -46 c3 -5 -26 -120 -63 -258 l-67 -250 -83 -130 c-46 -71 -98
-154 -117 -184 l-35 -54 -48 48 c-191 188 -185 503 14 693 69 67 139 106 224
126 62 16 168 20 175 9z m182 -618 c115 -31 211 -58 213 -60 8 -8 -52 -100
-96 -147 -144 -154 -369 -198 -564 -111 -32 14 -58 27 -58 29 0 4 210 336 222
351 6 7 19 8 41 3 18 -5 126 -34 242 -65z"/>
<path d="M1836 2188 c-60 -213 -125 -473 -119 -479 14 -13 511 -142 526 -136
9 3 17 28 21 69 24 219 -105 458 -302 561 -96 51 -107 49 -126 -15z m119 -37
c128 -73 233 -230 256 -379 12 -79 6 -142 -14 -142 -15 0 -418 108 -424 113
-7 8 112 437 122 437 6 0 33 -13 60 -29z"/>
<path d="M2832 943 l3 -358 203 -3 202 -2 0 45 0 45 -160 0 -160 0 0 315 0
315 -45 0 -45 0 2 -357z"/>
<path d="M4480 1260 l0 -40 230 0 c127 0 230 -4 230 -8 0 -4 -104 -129 -230
-278 -223 -261 -230 -270 -228 -309 l3 -40 280 -3 c154 -1 284 -1 290 2 6 2 9
22 7 45 l-4 41 -229 0 -229 0 230 270 c227 265 230 270 230 315 l0 45 -290 0
-290 0 0 -40z"/>
<path d="M2225 1128 c-16 -6 -132 -83 -258 -170 -125 -88 -253 -171 -283 -185
-55 -25 -57 -25 -167 -14 -61 7 -114 14 -116 17 -14 14 29 23 154 31 149 11
179 20 229 70 54 53 70 129 43 196 -24 56 -37 61 -109 39 -123 -38 -236 -37
-426 4 -49 11 -104 15 -165 12 -128 -6 -187 -35 -287 -142 -41 -44 -104 -109
-139 -144 -58 -58 -65 -62 -80 -48 -10 9 -22 16 -28 16 -17 0 -200 -138 -207
-157 -8 -20 2 -35 221 -323 119 -156 186 -236 200 -238 13 -2 53 22 114 70 79
62 94 78 94 102 1 30 20 49 71 72 19 8 147 21 335 34 201 13 320 26 353 36 42
14 86 53 330 291 154 150 289 288 298 306 43 81 2 138 -99 136 -26 0 -61 -5
-78 -11z m135 -53 c11 -13 11 -21 -1 -44 -8 -16 -134 -146 -280 -290 -195
-190 -279 -267 -313 -281 -38 -17 -95 -24 -343 -41 -164 -10 -314 -24 -333
-30 -19 -6 -52 -22 -73 -36 -22 -13 -40 -23 -41 -21 -2 2 -71 94 -155 204
l-152 202 68 68 c37 38 97 101 133 140 88 97 147 126 262 132 57 3 111 -1 160
-11 188 -41 301 -44 418 -11 51 15 55 15 68 -3 23 -31 9 -99 -29 -139 -42 -44
-69 -51 -214 -59 -161 -10 -185 -20 -185 -77 0 -18 8 -33 23 -42 27 -17 227
-40 271 -30 57 12 129 55 346 207 118 82 229 156 245 163 42 18 110 18 125 -1z
m-1581 -564 c99 -132 181 -244 181 -248 0 -13 -137 -116 -149 -111 -10 3 -371
478 -371 487 1 7 141 111 150 111 4 0 89 -108 189 -239z"/>
<path d="M3493 1094 c-23 -9 -61 -33 -83 -56 -58 -55 -84 -117 -84 -198 0
-202 195 -331 365 -242 52 27 125 105 114 122 -3 4 -22 11 -42 15 -32 6 -40 3
-58 -18 -74 -90 -220 -76 -268 26 -33 69 -40 67 188 67 l205 0 0 48 c0 62 -48
162 -96 198 -69 53 -158 67 -241 38z m155 -78 c15 -8 39 -27 55 -43 27 -29 50
-86 39 -97 -7 -8 -317 -8 -325 0 -8 8 19 73 41 98 48 53 132 72 190 42z"/>
<path d="M4054 1086 c-101 -47 -161 -154 -152 -270 7 -77 34 -132 92 -183 102
-90 233 -85 334 12 63 62 66 80 13 89 -35 5 -43 2 -73 -28 -63 -63 -150 -67
-219 -9 -29 25 -59 77 -59 103 0 6 72 10 210 10 l210 0 0 34 c0 138 -122 266
-255 266 -32 0 -69 -9 -101 -24z m193 -85 c38 -28 73 -82 73 -115 0 -14 -20
-16 -165 -16 -185 0 -182 -2 -145 70 46 90 157 119 237 61z"/>
<path d="M5312 1098 c-52 -18 -126 -91 -152 -149 -18 -42 -21 -66 -18 -123 4
-81 26 -133 75 -182 46 -47 87 -65 155 -71 104 -10 194 42 246 141 38 73 38
179 0 252 -28 53 -68 93 -121 121 -39 20 -141 26 -185 11z m171 -103 c90 -62
104 -202 28 -289 -47 -53 -147 -65 -206 -25 -41 28 -85 108 -85 156 0 38 23
98 48 127 55 62 149 75 215 31z"/>
<path d="M5905 1092 c-22 -10 -47 -27 -55 -37 -14 -17 -15 -16 -20 11 -5 26
-9 29 -45 29 l-40 0 -3 -257 -2 -258 45 0 45 0 0 170 c0 190 6 216 63 250 62
38 147 21 192 -38 18 -24 20 -45 23 -205 l3 -178 42 3 42 3 0 185 c0 179 -1
187 -25 230 -53 94 -172 136 -265 92z"/>
<path d="M6430 1089 c-97 -44 -150 -123 -158 -234 -6 -92 21 -158 88 -218 78
-71 174 -86 266 -43 48 22 124 97 124 122 0 6 -18 14 -39 18 -35 5 -43 2 -73
-28 -63 -63 -150 -67 -219 -9 -29 25 -59 77 -59 103 0 6 73 10 211 10 l212 0
-6 54 c-6 62 -43 139 -84 178 -69 66 -178 85 -263 47z m183 -84 c20 -14 46
-43 57 -65 37 -72 40 -70 -146 -70 l-166 0 6 31 c22 110 156 166 249 104z"/>
</g>
</svg>
